<svg xmlns="http://www.w3.org/2000/svg" viewBox="0 0 717.56 751.8"><defs><style>.cls-1{fill:#1a1a1a;}</style></defs><g id="Layer_2" data-name="Layer 2"><g id="Layer_1-2" data-name="Layer 1"><path class="cls-1" d="M350.23,200.73V91a58.38,58.38,0,0,1-22.93,7.86c-22.05,2.43-42.61-3-62.35-12.13C246.62,78.24,230.38,67,218.71,50A42.83,42.83,0,0,1,212,35.62c-4-16.91,5.71-30,24.38-33.82,19.47-4,38-.42,56.3,6,20.2,7.13,38.13,17.93,52.54,34a56.38,56.38,0,0,1,13,23.32c2.16-.44,1.5-2.39,1.94-3.6,5.53-15.18,16.34-26.09,29-35.26a137.74,137.74,0,0,1,69.15-26c11.56-1.06,23,0,33.55,5.38,12.88,6.6,17.54,18.47,12.92,32.25-4.05,12.09-12.11,21.35-21.59,29.3-22.55,18.89-48.62,29.74-78,32-13.46,1-26.55-.8-38-9.37v111.6c2.67-2.35,5.46-4.49,8.24-6.63,29.09-22.35,60-41.61,93.95-55.78,30.84-12.88,62.74-20.82,96.48-19.38,37.78,1.61,70.12,16.17,98.18,41.09C690.23,184,708,212.1,714.64,246.76c4.29,22.36,3.67,44.68-.63,66.93-9.4,48.57-31.83,91.25-59.74,131.42-5.88,8.46-12.08,16.69-18.75,24.54-1.8,2.12-2.33,3.93-1.36,6.71,14.07,40.33-23,80.87-56.95,79.59-3.48-.13-3.59,1.42-3.63,4.11-.51,27.83-21.12,53.4-48.24,60-1.61.39-3.26.63-4.9.89-3.27.52-7.72-1.24-9.55,1s-.78,6.35-1.1,9.65c-2.83,28.86-30.11,54.34-59.09,55.06-2.93.07-4,.57-4,3.79.49,29.05-24.67,54.37-45.67,59.58-17.61,4.36-33.63.62-48.39-9.22-3.12-2.08-5.54-3.15-9.44-2.09-37,10.06-69.42-20.2-74.83-47a53.93,53.93,0,0,1-1-11.89c.09-3.11-.77-3.85-3.83-4-27.76-1.17-52.23-21.26-59-48.31a41.08,41.08,0,0,1-1.21-12.87c.21-2.94-.78-3.63-3.56-3.59-26.56.47-53.6-23-59.23-48a46.82,46.82,0,0,1-1.25-12.87c.14-2.59-.29-3.86-3.4-3.83-27.44.33-52.75-23.33-58.71-45.49a52.25,52.25,0,0,1,.47-30c1.12-3.54.57-6-1.74-9-26.62-34.15-48.42-71.05-62.65-112.1-11.09-32-16.57-64.7-11.1-98.57,5.57-34.42,21.91-63,47.3-86.67,22.59-21,48.3-36.15,79-42,22.53-4.33,45-3.72,67.46.63,45.71,8.86,86,29.86,124.08,55.65C329.84,185.48,339.43,192.63,350.23,200.73ZM160,152.28a123.59,123.59,0,0,0-23.83,2.11A127.6,127.6,0,0,0,34.81,302.28c4.24,24.09,12.15,46.86,22.78,68.79a418.46,418.46,0,0,0,37.9,62.53c2.21,3.06,3.49,3.09,5.85.44,2.65-3,5.56-5.73,8.5-8.43,11.36-10.44,24.27-18,39.76-20.32,36.57-5.53,64.54,28.13,67.19,53.77.33,3.13-.71,7,.81,9.24,1.87,2.71,6.15.82,9.36,1.27,29.61,4.15,53.34,30.53,54.27,60.63.07,2.33-.19,4.1,3.21,4,31.38-.88,56.42,28.06,59.95,51.73.62,4.1-.62,9.37,1.53,12.1s7.94,0,11.79,1.51c6,2.32,10.47,1.1,14-4.28,1.78-2.73,3.44-2.44,5.79-.12,14.65,14.49,29.49,28.78,44.22,43.18,4.78,4.68,9.81,9,15.85,11.95,9.77,4.79,19.23,5.13,27.78-2.57,9-8.12,14.94-17.43,10.84-30.34A44,44,0,0,0,464.72,599c-15.45-15.08-30.91-30.17-46.55-45.06-2.8-2.66-2.6-4.13,0-6.62,5.61-5.41,11.08-11,16.35-16.75,2.44-2.66,3.87-3.28,6.83-.32,13.35,13.39,27,26.45,40.54,39.67,5.58,5.47,11.09,11,18.15,14.64,9.57,4.93,19,6.11,27.9-1.43,9.26-7.85,15.37-17.05,11.93-30a42.81,42.81,0,0,0-12-19.76c-15.47-15.07-30.9-30.17-46.49-45.12-2.37-2.28-2.49-3.47-.06-5.8,6-5.73,11.74-11.72,17.37-17.81,2.05-2.22,3.25-2.34,5.48-.14,15.16,14.92,30.48,29.68,45.7,44.54a59.88,59.88,0,0,0,12.63,9.68c17.16,9.56,36.69.91,41.07-18.38,3-13-2.94-23.27-11.86-31.6-48.55-45.35-97.37-90.41-146-135.66-2.4-2.23-3.8-2-6.14,0-10.47,8.94-21.07,17.73-31.68,26.52-12.78,10.58-25,21.76-40.3,29-31.91,15.19-62.77,11.43-86.2-11.61-17.35-17.07-25.4-37.59-20.23-62.05,3.77-17.77,13.41-32.44,26.12-45.05,13.22-13.13,28.18-24.31,42.53-36.16,3.95-3.26,2.88-4.5-.28-7-26-20.6-53.49-38.81-83.66-52.74C218.58,161.35,190.34,152.53,160,152.28Zm396.95,0a146,146,0,0,0-33.58,3.81c-46.21,10.67-86.71,33.18-123.66,62C371.8,239.93,345.16,263.29,318,286a83.21,83.21,0,0,0-20.84,25.19c-6.28,12-6.87,23.91,1.24,35.27,8.7,12.19,19.84,20,35.81,18.07,13.81-1.7,25.65-7.79,36.19-16.54q35.08-29.1,69.95-58.46c2.78-2.35,4.34-2.21,6.94.21q47.21,44,94.62,87.84c22.77,21.11,45.59,42.18,68.23,63.43,3.1,2.9,4.77,2.74,7-.68,2.53-3.89,5.52-7.49,8.19-11.29,24.89-35.45,45.63-72.9,55.27-115.61,5-22.34,5.92-44.79.39-67.23C669.27,198.75,617.07,150.68,556.92,152.31ZM136.3,513.47a26.11,26.11,0,0,0,9.78-1.61c14.08-5.48,23.43-16.44,32.33-27.9a29.58,29.58,0,0,0,5-10.8c3.24-12.36-2.07-21.6-11-29.5-8.22-7.27-17.3-8.12-26.77-3.08a81.84,81.84,0,0,0-33.71,32.93C102.18,491.12,116.09,513.36,136.3,513.47ZM265,643a20.76,20.76,0,0,0,7.45-1.17C287.31,637,296.7,625.56,306,614.06a31,31,0,0,0,5-10.23c3.53-11-.16-21.88-10.4-30.56-8.75-7.41-17.53-8.61-28.13-2.66A83.34,83.34,0,0,0,240,602.77C230.13,620.48,244.2,643,265,643Zm63.43,64.81a28.61,28.61,0,0,0,13.43-3.34,78.2,78.2,0,0,0,31.08-30.73c4.3-7.76,5.43-16.34.78-24.35-10.29-17.73-23.07-21.9-37-14.16s-25.51,18.69-33,33C294.55,685.52,308.71,707.76,328.41,707.83Zm-80-177.1c-.05-19.7-21.75-34.27-38.85-25.3a80.48,80.48,0,0,0-34.79,35c-3.16,6.15-3.79,12.56-.87,19.18,7.52,17,26.38,23.53,42.39,14.1,10.86-6.41,19.49-15.39,26.62-25.72A30.26,30.26,0,0,0,248.37,530.73ZM408,672.86c-4.34,18.45-15.06,32.31-28.73,44.56,11,3.73,19.76.33,28.4-10.46C415.76,696.83,416.05,685.86,408,672.86Z"/></g></g></svg>